<svg width="112" height="112" viewBox="0 0 112 112" fill="none" xmlns="http://www.w3.org/2000/svg">
<rect x="26.3164" y="3" width="58.9024" height="105" rx="7.17073" stroke="#2D4D40" stroke-width="2.56098" stroke-linejoin="round"/>
<line x1="26.3164" y1="23.2351" x2="85.2188" y2="23.2351" stroke="#2D4D40" stroke-width="2.56098"/>
<line x1="26.3164" y1="89.8172" x2="85.2188" y2="89.8172" stroke="#2D4D40" stroke-width="2.56098"/>
<path d="M48.8525 12.7305H62.1696" stroke="#2D4D40" stroke-width="2.56098" stroke-linecap="round"/>
<circle cx="55.7682" cy="98.5251" r="3.84146" stroke="#2D4D40" stroke-width="2.56098"/>
<path d="M73.6075 40.435C71.4083 38.2313 68.4967 37.0268 65.3892 37.0268C62.2817 37.0268 59.3612 38.2402 57.162 40.4439L56.0134 41.5949L54.8469 40.4261C52.6477 38.2223 49.7183 37 46.6108 37C43.5122 37 40.5917 38.2134 38.4014 40.4082C36.2021 42.612 34.9911 45.5385 35 48.6523C35 51.7661 36.2199 54.6836 38.4192 56.8874L55.1408 73.6431C55.3723 73.8751 55.6839 74 55.9866 74C56.2894 74 56.601 73.884 56.8325 73.652L73.5897 56.9231C75.789 54.7193 76.9999 51.7929 76.9999 48.679C77.0089 45.5652 75.8068 42.6388 73.6075 40.435ZM71.898 55.219L55.9866 71.1003L40.1109 55.1922C38.3657 53.4435 37.4041 51.1237 37.4041 48.6523C37.4041 46.1809 38.3568 43.8611 40.102 42.1213C41.8383 40.3815 44.1533 39.4179 46.6108 39.4179C49.0772 39.4179 51.4011 40.3815 53.1463 42.1302L55.1586 44.1466C55.6305 44.6195 56.3873 44.6195 56.8592 44.1466L58.8537 42.1481C60.5989 40.3993 62.9228 39.4357 65.3803 39.4357C67.8378 39.4357 70.1528 40.3993 71.898 42.1391C73.6432 43.8879 74.5959 46.2076 74.5959 48.679C74.6048 51.1505 73.6432 53.4702 71.898 55.219Z" fill="#2D4D40"/>
</svg>
