<svg width="112" height="112" viewBox="0 0 112 112" fill="none" xmlns="http://www.w3.org/2000/svg">
<path d="M25.8071 37.6487L39.0813 50.0379L64.937 24.1822C64.937 24.1822 53.998 20.2043 42.5618 23.1876C36.2621 24.831 28.9079 31.4476 25.7435 34.5259C24.8549 35.3905 24.9007 36.8027 25.8071 37.6487Z" fill="#F1EBE2" stroke="#4E442A" stroke-width="2.24"/>
<path d="M77.0984 88.6363L64.4795 75.5803L89.88 49.2773C89.88 49.2773 94.0482 60.1451 91.2649 71.6316C89.7317 77.9591 83.2444 85.4277 80.2219 88.6453C79.3729 89.549 77.96 89.5277 77.0984 88.6363Z" fill="#F1EBE2" stroke="#4E442A" stroke-width="2.24"/>
<path d="M54.2795 82.3948L32.6951 60.8104C31.1721 59.2874 30.9507 56.9031 32.2221 55.1646C35.3324 50.9111 41.5013 42.8645 48.6544 35.6217C58.9705 25.176 71.2172 17.0365 71.2172 17.0365C71.2172 17.0365 101.732 7.27591 103.721 8.27036C105.71 9.26482 96.7596 42.0817 96.7596 42.0817C96.7596 42.0817 91.7874 54.0151 79.3531 66.3204C70.9586 74.6279 63.6149 80.1892 59.7292 82.9258C58.0286 84.1235 55.7504 83.8657 54.2795 82.3948Z" fill="#F1EBE2"/>
<path d="M71.2172 17.0365C71.2172 17.0365 58.9705 25.176 48.6544 35.6217C41.5013 42.8645 35.3324 50.9111 32.2221 55.1646C30.9507 56.9031 31.1721 59.2874 32.6951 60.8104L54.2795 82.3948C55.7504 83.8657 58.0286 84.1235 59.7292 82.9258C63.6149 80.1892 70.9586 74.6279 79.3531 66.3204C91.7874 54.0151 96.7596 42.0817 96.7596 42.0817M71.2172 17.0365C71.2172 17.0365 101.732 7.27591 103.721 8.27036C105.71 9.2648 96.7596 42.0817 96.7596 42.0817M71.2172 17.0365L96.7596 42.0817" stroke="#4E442A" stroke-width="2.24"/>
<path d="M65.9318 57.9906C71.424 57.9906 75.8764 53.5383 75.8764 48.0461C75.8764 42.5539 71.424 38.1016 65.9318 38.1016C60.4396 38.1016 55.9873 42.5539 55.9873 48.0461C55.9873 53.5383 60.4396 57.9906 65.9318 57.9906Z" fill="#F1EBE2" stroke="#4E442A" stroke-width="2.24"/>
<path d="M37.627 91.1242C40.0758 87.825 41.5797 79.6316 37.0778 75.6183C31.9336 71.0324 22.2499 75.6183 20.0533 80.0486C16.9114 86.3848 16.209 97.7695 16.209 97.7695C16.209 97.7695 32.394 98.1741 37.627 91.1242Z" fill="#F1EBE2" stroke="#4E442A" stroke-width="2.24"/>
</svg>
