<svg width="50" height="50" viewBox="0 0 50 50" fill="none" xmlns="http://www.w3.org/2000/svg">
<g clip-path="url(#clip0_1520_490)">
<path d="M25 0C11.2151 0 0 11.2151 0 25C0 38.7849 11.2151 50 25 50C38.7849 50 50 38.7849 50 25C50 11.2151 38.7849 0 25 0ZM25 3.75C30.1779 3.75 34.9119 5.59542 38.5938 8.65967C35.153 11.6889 31.2185 14.1539 26.9751 16.0449C24.7644 12.0245 22.3646 8.12596 19.6704 4.44824C21.3757 4.00887 23.1552 3.75 25 3.75ZM15.9814 5.77148C18.7469 9.4284 21.187 13.3303 23.4326 17.3584C18.8131 18.9633 13.9221 20 8.75 20C7.29044 20 5.85168 19.9027 4.42383 19.7632C5.99614 13.5441 10.2887 8.43936 15.9814 5.77148ZM41.2524 11.3086C44.3265 14.9562 46.1919 19.6522 46.2402 24.7974C43.5408 24.1202 40.7199 23.75 37.8125 23.75C35.5274 23.75 33.3197 24.045 31.1572 24.4678C30.404 22.723 29.5791 21.0273 28.7305 19.3359C33.3046 17.2674 37.5506 14.5953 41.2524 11.3086ZM25.2222 20.7129C26.0141 22.277 26.8126 23.8298 27.5195 25.4419C19.9415 27.8121 13.4366 32.6234 9.07226 39.0479C5.7692 35.304 3.75 30.3992 3.75 25C3.75 24.482 3.7919 23.9754 3.82812 23.4668C5.44724 23.6328 7.08231 23.75 8.75 23.75C14.5542 23.75 20.0564 22.5791 25.2222 20.7129ZM37.8125 27.5C40.6235 27.5 43.3354 27.8992 45.9229 28.6035C44.9419 34.3617 41.6701 39.322 37.0557 42.5024C35.9442 37.5811 34.3883 32.8364 32.6074 28.2031C34.3252 27.9074 36.0088 27.5 37.8125 27.5ZM28.8647 28.9062C30.8284 33.907 32.5078 39.0518 33.6328 44.4141C30.9947 45.5857 28.0785 46.25 25 46.25C20.0133 46.25 15.4464 44.5283 11.8262 41.665C15.7611 35.5967 21.7885 31.0514 28.8647 28.9062Z" fill="white"/>
</g>
<defs>
<clipPath id="clip0_1520_490">
<rect width="50" height="50" fill="white"/>
</clipPath>
</defs>
</svg>
