<svg width="50" height="50" viewBox="0 0 50 50" fill="none" xmlns="http://www.w3.org/2000/svg">
<g clip-path="url(#clip0_1520_488)">
<path d="M14.7727 -0.5C6.35168 -0.5 -0.5 6.35168 -0.5 14.7727V35.2273C-0.5 43.6483 6.35168 50.5 14.7727 50.5H35.2273C43.6483 50.5 50.5 43.6483 50.5 35.2273V14.7727C50.5 6.35168 43.6483 -0.5 35.2273 -0.5H14.7727ZM14.7727 2.77273H35.2273C41.8676 2.77273 47.2273 8.13241 47.2273 14.7727V35.2273C47.2273 41.8676 41.8676 47.2273 35.2273 47.2273H14.7727C8.13241 47.2273 2.77273 41.8676 2.77273 35.2273V14.7727C2.77273 8.13241 8.13241 2.77273 14.7727 2.77273ZM38.6364 8.59091C37.901 8.59091 37.1957 8.88303 36.6757 9.40302C36.1558 9.92301 35.8636 10.6283 35.8636 11.3636C35.8636 12.099 36.1558 12.8043 36.6757 13.3243C37.1957 13.8442 37.901 14.1364 38.6364 14.1364C39.3717 14.1364 40.077 13.8442 40.597 13.3243C41.117 12.8043 41.4091 12.099 41.4091 11.3636C41.4091 10.6283 41.117 9.92301 40.597 9.40302C40.077 8.88303 39.3717 8.59091 38.6364 8.59091ZM25 12C17.8338 12 12 17.8338 12 25C12 32.1662 17.8338 38 25 38C32.1662 38 38 32.1662 38 25C38 17.8338 32.1662 12 25 12ZM25 15.2727C30.3857 15.2727 34.7273 19.6143 34.7273 25C34.7273 30.3857 30.3857 34.7273 25 34.7273C19.6143 34.7273 15.2727 30.3857 15.2727 25C15.2727 19.6143 19.6143 15.2727 25 15.2727Z" fill="white" stroke="white" stroke-miterlimit="1.42723"/>
</g>
<defs>
<clipPath id="clip0_1520_488">
<rect width="50" height="50" fill="white"/>
</clipPath>
</defs>
</svg>
