<svg width="50" height="50" viewBox="0 0 50 50" fill="none" xmlns="http://www.w3.org/2000/svg">
<path d="M4.26488 44.0343C3.39923 44.0343 2.56903 43.6904 1.95692 43.0783C1.34481 42.4662 1.00094 41.636 1.00094 40.7703V9.1409C0.990518 8.70583 1.06721 8.27306 1.22651 7.86806C1.38581 7.46306 1.6245 7.094 1.92853 6.78261C2.23256 6.47121 2.59579 6.22376 2.99686 6.05481C3.39794 5.88586 3.82875 5.79883 4.26395 5.79883C4.69915 5.79883 5.12996 5.88586 5.53103 6.05481C5.9321 6.22376 6.29534 6.47121 6.59937 6.78261C6.9034 7.094 7.14208 7.46306 7.30138 7.86806C7.46068 8.27306 7.53738 8.70583 7.52696 9.1409V40.7703C7.52721 41.1989 7.44301 41.6233 7.27919 42.0192C7.11536 42.4152 6.87512 42.7751 6.57218 43.0782C6.26925 43.3813 5.90956 43.6217 5.51366 43.7858C5.11776 43.9498 4.69342 44.0343 4.26488 44.0343V44.0343Z" fill="white"/>
<path d="M26.5227 43.9561C25.6571 43.9561 24.8269 43.6123 24.2148 43.0002C23.6027 42.3881 23.2588 41.5579 23.2588 40.6922V9.06277C23.2588 8.19712 23.6027 7.36692 24.2148 6.75482C24.8269 6.14271 25.6571 5.79883 26.5227 5.79883C27.3884 5.79883 28.2186 6.14271 28.8307 6.75482C29.4428 7.36692 29.7867 8.19712 29.7867 9.06277V40.6922C29.7867 41.5579 29.4428 42.3881 28.8307 43.0002C28.2186 43.6123 27.3884 43.9561 26.5227 43.9561V43.9561Z" fill="white"/>
<path d="M15.3699 29.486C17.7273 29.486 19.6383 27.575 19.6383 25.2176C19.6383 22.8602 17.7273 20.9492 15.3699 20.9492C13.0126 20.9492 11.1016 22.8602 11.1016 25.2176C11.1016 27.575 13.0126 29.486 15.3699 29.486Z" fill="white"/>
<path d="M48.376 38.9409L41.966 29.3267C44.4517 28.1681 46.4678 26.1961 47.681 23.7365C48.8942 21.277 49.232 18.4771 48.6384 15.7996C48.0449 13.1221 46.5556 10.7272 44.4166 9.01075C42.2777 7.2943 39.6171 6.35898 36.8746 6.35938C36.0089 6.35938 35.1787 6.70325 34.5666 7.31536C33.9545 7.92747 33.6106 8.75767 33.6106 9.62332C33.6106 10.489 33.9545 11.3192 34.5666 11.9313C35.1787 12.5434 36.0089 12.8873 36.8746 12.8873C37.6084 12.8738 38.3375 13.0066 39.0193 13.2781C39.7012 13.5496 40.3221 13.9542 40.8458 14.4683C41.3695 14.9825 41.7855 15.5959 42.0695 16.2726C42.3534 16.9493 42.4997 17.6759 42.4997 18.4098C42.4997 19.1437 42.3534 19.8702 42.0695 20.547C41.7855 21.2237 41.3695 21.8371 40.8458 22.3512C40.3221 22.8654 39.7012 23.27 39.0193 23.5415C38.3375 23.813 37.6084 23.9458 36.8746 23.9323C36.8353 23.9323 36.796 23.9323 36.7549 23.9323C36.1534 23.9072 35.5567 24.049 35.0309 24.3422C34.5052 24.6353 34.0708 25.0683 33.776 25.5932C33.4812 26.1181 33.3375 26.7143 33.3608 27.3159C33.3841 27.9174 33.5735 28.5008 33.908 29.0013L42.9461 42.5565C43.1748 42.9327 43.4772 43.2588 43.8352 43.5151C44.1933 43.7715 44.5994 43.9527 45.0293 44.0479C45.4592 44.1432 45.9039 44.1504 46.3367 44.0693C46.7694 43.9882 47.1813 43.8203 47.5475 43.5759C47.9137 43.3314 48.2267 43.0153 48.4675 42.6468C48.7084 42.2782 48.8722 41.8647 48.9491 41.4311C49.026 40.9976 49.0143 40.553 48.9149 40.124C48.8154 39.6951 48.6302 39.2907 48.3704 38.9353L48.376 38.9409Z" fill="white"/>
</svg>
