<svg width="50" height="50" viewBox="0 0 50 50" fill="none" xmlns="http://www.w3.org/2000/svg">
<path d="M2.7884 38.8581L2.78844 38.8582C5.28708 35.4212 5.76277 32.275 5.6567 29.1255C5.60692 27.6473 5.41087 26.1836 5.21183 24.6975C5.19757 24.591 5.1833 24.4845 5.16906 24.3778C4.95741 22.7915 4.75447 21.1794 4.75447 19.5543C4.75447 13.6786 6.58458 8.85285 9.92747 5.53635C13.269 2.22125 18.004 0.5 23.5512 0.5C28.4867 0.5 31.7885 3.53566 33.1436 4.91062C37.3936 5.11362 40.4968 7.23746 42.3355 10.1575L42.3357 10.1579C44.247 13.1995 44.9249 16.955 44.9249 20.3696C44.9249 22.0682 44.739 23.6933 44.5514 25.2489C44.5407 25.3377 44.53 25.4263 44.5193 25.5146C44.3417 26.9825 44.1722 28.3835 44.1518 29.7683C44.1088 32.6777 44.6247 35.5 47.1717 38.8133C47.4381 39.1556 47.5503 39.598 47.479 40.0253C47.4075 40.4578 47.1573 40.8384 46.7873 41.0739L46.7837 41.0762L46.5316 40.6727C46.7837 41.0762 46.7836 41.0763 46.7835 41.0763L46.7833 41.0765L46.7828 41.0767L46.7815 41.0776L46.7776 41.08L46.7644 41.0881C46.7531 41.0949 46.7372 41.1045 46.7164 41.1168C46.675 41.1413 46.6145 41.1765 46.5353 41.2208C46.3768 41.3094 46.1429 41.4349 45.8351 41.5864C45.2194 41.8893 44.3076 42.2965 43.1103 42.7212L43.11 42.7213C40.8126 43.5347 37.3708 44.4132 32.7944 44.9415C30.4484 47.7322 27.7001 49.5 24.8397 49.5C21.9892 49.5 19.2619 47.7503 16.9212 44.9783C12.3489 44.4534 8.96106 43.5436 6.72438 42.7191M2.7884 38.8581L32.5385 44.4674C30.2071 47.2962 27.5375 49 24.8397 49C22.15 49 19.5005 47.3125 17.1731 44.5H17.1409C12.5224 43.9823 9.11997 43.0693 6.89731 42.25C4.60619 41.4062 3.45056 40.6196 3.45056 40.6196M2.7884 38.8581L2.78433 38.8639C2.54733 39.1998 2.45164 39.6198 2.52323 40.0254M2.7884 38.8581L3.01569 39.9389M6.72438 42.7191L6.89654 42.2521L6.72452 42.7192C6.72447 42.7192 6.72442 42.7192 6.72438 42.7191ZM6.72438 42.7191C5.55717 42.2893 4.67562 41.8727 4.08228 41.561C3.7856 41.4052 3.56097 41.2757 3.40869 41.1838C3.33255 41.1379 3.2745 41.1014 3.23458 41.0758C3.21461 41.063 3.19918 41.0529 3.18828 41.0456L3.17534 41.037L3.17142 41.0344L3.17009 41.0335L3.16959 41.0332L3.16938 41.033C3.16929 41.0329 3.1692 41.0329 3.45056 40.6196M3.45056 40.6196C3.22105 40.4606 3.06401 40.216 3.01569 39.9389M3.45056 40.6196L3.1692 41.0329L3.16587 41.0306C2.82669 40.7957 2.59471 40.4343 2.52323 40.0254M3.01569 39.9389L2.52334 40.026C2.5233 40.0258 2.52327 40.0256 2.52323 40.0254M3.01569 39.9389L2.52312 40.0247C2.52316 40.0249 2.5232 40.0252 2.52323 40.0254M30.5413 14.9239L30.1671 14.8261H30.0735V14.8016L30.0576 14.7975L30.0735 14.7364V14.6208L30.1057 14.5882V14.5229L30.2024 14.4251V14.2839L30.3964 14.1661L30.407 14.1481L30.4623 14.0978C30.5248 14.0409 30.5893 13.9934 30.6487 13.9547C30.7107 13.9116 30.7781 13.8694 30.8534 13.8306C30.9493 13.7774 31.0522 13.731 31.1691 13.6955L31.2402 13.6739H31.3144H31.3145H31.3147H31.3148H31.3149H31.315H31.3151H31.3152H31.3154H31.3155H31.3156H31.3157H31.3158H31.316H31.3161H31.3162H31.3163H31.3164H31.3166H31.3167H31.3168H31.3169H31.317H31.3172H31.3173H31.3174H31.3175H31.3176H31.3178H31.3179H31.318H31.3181H31.3182H31.3184H31.3185H31.3186H31.3187H31.3188H31.319H31.3191H31.3192H31.3193H31.3195H31.3196H31.3197H31.3198H31.3199H31.3201H31.3202H31.3203H31.3204H31.3205H31.3207H31.3208H31.3209H31.321H31.3212H31.3213H31.3214H31.3215H31.3217H31.3218H31.3219H31.322H31.3221H31.3223H31.3224H31.3225H31.3226H31.3228H31.3229H31.323H31.3231H31.3233H31.3234H31.3235H31.3236H31.3237H31.3239H31.324H31.3241H31.3242H31.3244H31.3245H31.3246H31.3247H31.3249H31.325H31.3251H31.3252H31.3254H31.3255H31.3256H31.3257H31.3259H31.326H31.3261H31.3262H31.3264H31.3265H31.3266H31.3267H31.3269H31.327H31.3271H31.3272H31.3274H31.3275H31.3276H31.3277H31.3279H31.328H31.3281H31.3283H31.3284H31.3285H31.3286H31.3288H31.3289H31.329H31.3291H31.3293H31.3294H31.3295H31.3296H31.3298H31.3299H31.33H31.3301H31.3303H31.3304H31.3305H31.3307H31.3308H31.3309H31.331H31.3312H31.3313H31.3314H31.3315H31.3317H31.3318H31.3319H31.3321H31.3322H31.3323H31.3324H31.3326H31.3327H31.3328H31.3329H31.3331H31.3332H31.3333H31.3335H31.3336H31.3337H31.3338H31.334H31.3341H31.3342H31.3344H31.3345H31.3346H31.3347H31.3349H31.335H31.3351H31.3353H31.3354H31.3355H31.3356H31.3358H31.3359H31.336H31.3362H31.3363H31.3364H31.3365H31.3367H31.3368H31.3369H31.3371H31.3372H31.3373H31.3374H31.3376H31.3377H31.3378H31.338H31.3381H31.3382H31.3383H31.3385H31.3386H31.3387H31.3389H31.339H31.3391H31.3392H31.3394H31.3395H31.3396H31.3398H31.3399H31.34H31.3402H31.3403H31.3404H31.3405H31.3407H31.3408H31.3409H31.3411H31.3412H31.3413H31.3414H31.3416H31.3417H31.3418H31.342H31.3421H31.3422H31.3424H31.3425H31.3426H31.3427H31.3429H31.343H31.3431H31.3433H31.3434H31.3435H31.3436H31.3438H31.3439H31.344H31.3442H31.3443H31.3444H31.3446H31.3447H31.3448H31.3449C31.4755 13.6576 31.6043 13.6576 31.7349 13.6739H31.7804L31.8269 13.6828C32.2157 13.7569 32.5649 13.978 32.7951 14.3075C32.7986 14.3111 32.8019 14.3145 32.8047 14.3175L32.8235 14.3375C34.1322 15.5244 38.7401 20.2622 38.7401 28.4239C38.7401 33.9957 36.6931 38.6931 35.1082 41.5295C38.1419 41.027 40.4633 40.3706 42.0994 39.7897L42.0997 39.7896C43.0165 39.4648 43.4505 39.2793 43.7435 39.1329C41.6684 35.8293 41.0467 32.6608 41.0903 29.7208L41.0903 29.7204C41.1166 28.0573 41.3086 26.4633 41.4926 24.9356L41.5 24.8745C41.6873 23.3192 41.8633 21.8366 41.8633 20.3696C41.8633 17.3599 41.2244 14.1454 39.7495 11.7987C39.0126 10.6261 38.0974 9.66319 36.9311 8.99135C35.766 8.32024 34.3232 7.92391 32.5063 7.92391H32.4991L32.4991 7.92386C32.0864 7.91789 31.6907 7.75022 31.4019 7.4412C30.3901 6.38475 27.5174 3.58696 23.5512 3.58696V3.08696C27.7469 3.08696 30.7507 6.03804 31.7654 7.09783C31.9587 7.30571 32.2244 7.41984 32.5063 7.42391L8.21802 29.0435C8.32674 32.2391 7.73081 35.7405 5.47995 39.3152C5.53129 39.3452 5.58005 39.3747 5.62942 39.4046C5.95567 39.602 6.30846 39.8155 7.60598 40.2935M30.5413 14.9239C30.5413 14.9239 29.3213 19.591 23.519 21.413C22.9337 21.5968 22.2404 21.7636 21.4855 21.9451C19.8463 22.3394 17.917 22.8034 16.1745 23.663C13.6297 24.9185 11.4393 27.2867 11.4393 31.2609C11.4393 36.087 13.5049 39.8777 15.1115 42.1196C11.8097 41.6101 9.30519 40.9212 7.60598 40.2935M30.5413 14.9239L30.4423 14.8261M30.5413 14.9239L30.5735 14.8913V14.8261M7.60598 40.2935L7.77925 39.8245L7.77881 39.8243L7.60598 40.2935ZM30.4423 14.8261L34.4762 41.6303C36.0599 38.8796 38.2401 34.1102 38.2401 28.4239C38.2401 20.4348 33.7143 15.8166 32.4741 14.6957M30.4423 14.8261H30.5735M30.5735 14.8261L30.6057 14.7935V14.7283M30.5735 14.8261L30.4745 14.7283H30.6057M30.6057 14.7283L30.638 14.6957C30.646 14.6753 30.6581 14.6508 30.6702 14.6304M30.6057 14.7283L30.4737 14.5978M30.6702 14.6304L30.7024 14.5978M30.6702 14.6304L30.6372 14.5978M30.6702 14.6304L30.6152 14.5978L30.7824 14.697L30.6372 14.5978M30.7024 14.5978V14.5652C30.7225 14.553 30.7467 14.5408 30.7668 14.5326C30.7749 14.5122 30.7869 14.4878 30.799 14.4674C30.8393 14.4307 30.8836 14.3981 30.9279 14.3696C30.9802 14.3329 31.0326 14.3003 31.0889 14.2717C31.1614 14.231 31.2339 14.1984 31.3144 14.1739H31.3788C31.4876 14.1576 31.5923 14.1576 31.701 14.1739H31.7332C32.011 14.2269 32.2566 14.3899 32.4096 14.6304M30.7024 14.5978H30.6372M30.7024 14.5978L30.5494 14.4467L30.656 14.4888L30.6372 14.5978M32.4096 14.6304C32.4209 14.639 32.4399 14.6594 32.4559 14.6765C32.4628 14.6839 32.4692 14.6907 32.4741 14.6957M32.4096 14.6304L32.7 14.4457M32.4096 14.6304L32.7 14.4457M32.4741 14.6957L32.7 14.4457M32.4741 14.6957L32.7761 14.3973L32.8315 14.362C32.829 14.3581 32.8264 14.3541 32.8238 14.3501L32.7 14.4457" fill="white" stroke="white"/>
</svg>
