<svg width="45" height="45" viewBox="0 0 45 45" fill="none" xmlns="http://www.w3.org/2000/svg">
<g clip-path="url(#clip0_2268_92)">
<path d="M22.5 0C10.074 0 0 10.074 0 22.5C0 34.926 10.074 45 22.5 45C34.926 45 45 34.926 45 22.5C45 10.074 34.926 0 22.5 0ZM15.1357 3.65704C12.9443 6.04055 11.2088 9.46881 10.1475 13.5001H4.37247C6.60753 9.02997 10.4475 5.49527 15.1357 3.65704ZM2.25 22.5C2.25 20.127 2.69622 17.8658 3.45076 15.75H9.64652C9.24152 17.8852 9 20.1413 9 22.5C9 24.8587 9.24152 27.1148 9.64573 29.25H3.45076C2.69622 27.1342 2.25 24.873 2.25 22.5ZM4.37247 31.5H10.1475C11.2095 35.5313 12.9443 38.9595 15.1357 41.343C10.4475 39.5047 6.60753 35.97 4.37247 31.5ZM21.375 42.6435C17.5245 41.9182 14.1788 37.5247 12.4665 31.5H21.375V42.6435ZM21.375 29.25H11.9303C11.4975 27.126 11.25 24.8557 11.25 22.5C11.25 20.1443 11.4975 17.874 11.9303 15.75H21.375V29.25ZM21.375 13.5H12.4665C14.1788 7.47527 17.5245 3.08171 21.375 2.35652V13.5ZM40.6275 13.5H34.8525C33.7905 9.46872 32.0557 6.04046 29.8643 3.65695C34.5525 5.49527 38.3925 9.02997 40.6275 13.5ZM23.625 2.35652C27.4755 3.0818 30.8212 7.47527 32.5335 13.5H23.625V2.35652ZM23.625 15.75H33.0697C33.5025 17.874 33.75 20.1443 33.75 22.5C33.75 24.8557 33.5025 27.126 33.0697 29.25H23.625V15.75ZM23.625 42.6435V31.5H32.5335C30.8212 37.5247 27.4755 41.9183 23.625 42.6435ZM29.8643 41.343C32.0557 38.9587 33.7905 35.5312 34.8525 31.5H40.6275C38.3925 35.97 34.5525 39.5047 29.8643 41.343ZM35.3535 29.25C35.7585 27.1148 36 24.8587 36 22.5C36 20.1413 35.7585 17.8852 35.3543 15.75H41.55C42.3038 17.8658 42.75 20.127 42.75 22.5C42.75 24.873 42.3038 27.1342 41.5492 29.25H35.3535Z" fill="white"/>
</g>
<defs>
<clipPath id="clip0_2268_92">
<rect width="45" height="45" fill="white"/>
</clipPath>
</defs>
</svg>
